<svg xmlns="http://www.w3.org/2000/svg" viewBox="0 0 32 32" fill="none">
  <defs>
    <linearGradient id="wgd" x1="0%" y1="0%" x2="100%" y2="100%">
      <stop offset="0%" style="stop-color:#7C3AED"/>
      <stop offset="100%" style="stop-color:#EC4899"/>
    </linearGradient>
  </defs>
  <svg x="1" y="2.5" width="30" height="27" viewBox="-100 -50 4480 3420">
    <g transform="translate(-210,3270) scale(1,-1)" fill="url(#wgd)" stroke="none">
      <path d="M210 3264 c0 -9 110 -294 222 -574 108 -270 424 -1082 665 -1709 95
-250 185 -473 199 -497 62 -105 158 -180 269 -209 34 -8 102 -15 160 -15 l100
0 99 253 c55 138 119 293 142 344 42 92 42 92 11 99 -54 11 -103 41 -143 87
-34 39 -81 151 -378 918 -408 1053 -392 1012 -431 1074 -64 102 -186 186 -320
220 -46 12 -120 15 -327 15 -147 0 -268 -3 -268 -6z"/>
      <path d="M3552 3191 c-210 -52 -394 -202 -487 -395 -54 -114 -69 -184 -69
-326 1 -144 15 -212 73 -335 74 -157 175 -260 326 -335 104 -51 176 -70 302
-77 358 -20 670 196 775 537 18 61 23 98 23 200 0 150 -15 215 -82 350 -38 79
-61 110 -132 181 -71 71 -102 94 -181 132 -131 65 -226 87 -364 86 -71 0 -138
-7 -184 -18z m332 -415 c72 -35 149 -119 172 -188 26 -74 24 -179 -3 -240 -30
-66 -105 -143 -172 -175 -48 -24 -68 -28 -141 -28 -73 0 -93 4 -142 28 -270
133 -241 530 45 623 66 22 174 13 241 -20z"/>
      <path d="M2177 2346 c-80 -33 -116 -64 -190 -159 -108 -139 -122 -164 -110
-195 107 -262 256 -637 379 -957 186 -484 216 -547 303 -635 76 -77 132 -112
234 -147 59 -20 193 -40 245 -36 6 0 108 1 225 2 l214 1 121 308 c66 169 169
428 227 575 59 148 105 270 103 272 -2 2 -163 5 -358 7 -322 3 -359 1 -400
-15 -73 -29 -120 -68 -153 -125 -30 -53 -30 -54 -43 -31 -17 34 -233 559 -325
794 -44 109 -90 216 -104 237 -74 112 -237 158 -368 104z"/>
    </g>
  </svg>
</svg>
